<svg viewBox="0 0 841.9 1488.25" xmlns="http://www.w3.org/2000/svg" xmlns:xlink="http://www.w3.org/1999/xlink" overflow="hidden"><g><g><path d="" stroke="#000000" stroke-width="10" stroke-miterlimit="10" fill="none"/><path d="M421.1 630.2C421.1 630.2 429.9 661.5 430.6 668 431.3 674.5 433.1 706.1 429.7 722.5 426.3 738.9 435.3 796 435.9 809.3 436.5 822.6 434.7 871 434.4 876.9 434.1 882.8 438.1 903.9 440.6 921.5 443.1 939.1 442.1 971.7 438.1 982.2 434.1 992.7 432.8 1000.8 435 1005.1 437.2 1009.4 435.6 1040.7 438.1 1042.6 440.6 1044.5 443.1 1046.6 445.2 1044.8 447.4 1042.9 473.7 1042.3 478.1 1042.6 482.4 1042.9 485.8 1042.3 488 1040.4 490.2 1038.5 488.6 1034.8 477.5 1032 466.3 1029.2 460.8 1005 464.5 977.1 468.2 949.2 481.2 928.8 484 918.5 486.8 908.3 495.2 870.2 487.7 855.3 480.2 840.4 476.5 794.9 483.1 765.1 489.6 735.3 502.6 691.6 510.1 651 517.5 610.4 502 538.2 498.3 517.1 494.6 496 492.7 471.2 502.6 443.3 512.5 415.4 506.3 391.2 507.6 398.6 508.8 406 528.7 472.4 531.8 484.8 534.9 497.2 562.8 540 569.6 544.9 576.4 549.8 585.7 573.4 585.7 573.4L583.2 591.4 609.2 647.8 622.8 650.9 631.5 642.8 631.5 593.8 646.4 605.6 652 605.6 652 599.4 633.4 577.1C633.4 577.1 619.1 565.9 612.3 561 605.5 556.1 598 531.2 594.3 522.6 590.6 513.9 586.2 486.6 580 469.9 573.8 453.2 557.1 437.7 554 429 550.9 420.3 549.5 355.9 549 348.4 548.5 341 537.4 314.9 533.2 308.9 529 302.9 518.8 297.7 507.6 295.9 496.4 294.1 483.4 288.5 476.5 285.2 469.5 281.9 464.4 275.9 461 274.5 457.6 273.1 452.8 275.9 451.9 274.5 451 273.1 448.6 244.3 453.8 238.7 458.9 233.1 460.8 195.5 460.8 195.5 460.8 195.5 463.1 172.7 454.8 160.2 446.5 147.7 421.3 146.3 421.3 146.3 421.3 146.3 396.2 147.7 387.8 160.2 379.4 172.7 381.8 195.5 381.8 195.5 381.8 195.5 383.7 233.2 388.8 238.7 393.9 244.3 391.6 273.1 390.7 274.5 389.8 275.9 385 273.1 381.6 274.5 378.2 275.9 373.1 281.9 366.1 285.2 359.1 288.5 346.1 294 335 295.9 323.8 297.8 313.6 302.9 309.4 308.9 305.2 314.9 294.1 341 293.6 348.4 293.1 355.8 291.7 420.3 288.6 429 285.5 437.7 268.8 453.2 262.6 469.9 256.4 486.6 252.1 513.9 248.3 522.6 244.6 531.3 237.1 556.1 230.3 561 223.5 566 209.2 577.1 209.2 577.1L190.6 599.4 190.6 605.6 196.2 605.6 211.1 593.8 211.1 642.8 219.8 650.9 233.4 647.8 259.4 591.4 256.9 573.4C256.9 573.4 266.2 549.8 273 544.9 279.8 539.9 307.7 497.2 310.8 484.8 313.9 472.4 333.7 405.9 335 398.6 336.2 391.2 330 415.4 340 443.3 350 471.2 348.1 496 344.3 517.1 340.6 538.2 325.1 610.4 332.5 651 339.9 691.6 353 735.3 359.5 765.1 366 794.9 362.3 840.4 354.9 855.3 347.5 870.2 355.8 908.3 358.6 918.5 361.4 928.7 374.4 949.2 378.1 977.1 381.8 1005 376.2 1029.2 365.1 1032 353.9 1034.8 352.4 1038.5 354.6 1040.4 356.8 1042.3 360.2 1042.9 364.5 1042.6 368.8 1042.3 395.2 1042.9 397.4 1044.8 399.6 1046.7 402 1044.5 404.5 1042.6 407 1040.7 405.4 1009.4 407.6 1005.1 409.8 1000.8 408.5 992.7 404.5 982.2 400.5 971.7 399.5 939.1 402 921.5 404.5 903.9 408.5 882.8 408.2 876.9 407.9 871 406 822.7 406.7 809.3 407.4 795.9 416.3 738.9 412.9 722.5 409.5 706.1 411.4 674.5 412 668 412.3 661.5 421.1 630.2 421.1 630.2Z" stroke="#000000" stroke-width="10" stroke-miterlimit="10" fill="none"/></g></g><text font-family="Helvetica Neue,Helvetica,Arial-Unicode,Arial,Arial" font-weight="700" font-size="5" x="0" y="1205.6">Created by Yu-Hsuan Chen</text><text font-family="Helvetica Neue,Helvetica,Arial-Unicode,Arial,Arial" font-weight="700" font-size="5" x="0" y="1210.6">from the Noun Project</text></svg>